<svg xmlns="http://www.w3.org/2000/svg" xmlns:xlink="http://www.w3.org/1999/xlink" width="1024" zoomAndPan="magnify" viewBox="0 0 768 767.999994" height="1024" preserveAspectRatio="xMidYMid meet" version="1.0"><defs><g/><clipPath id="808fb6b786"><path d="M 237.398438 217.511719 L 530.03125 217.511719 L 530.03125 363.542969 L 237.398438 363.542969 Z M 237.398438 217.511719 " clip-rule="nonzero"/></clipPath><clipPath id="6b760f51f7"><path d="M 530.03125 363.542969 C 530.03125 284.003906 463.542969 217.511719 384 217.511719 C 304.457031 217.511719 237.96875 284.003906 237.96875 363.542969 L 319.054688 363.542969 C 319.054688 328.167969 348.625 298.597656 384 298.597656 C 419.375 298.597656 448.945312 328.167969 448.945312 363.542969 Z M 530.03125 363.542969 " clip-rule="nonzero"/></clipPath><clipPath id="65ce03cb2d"><path d="M 0.839844 0.511719 L 293.03125 0.511719 L 293.03125 146.542969 L 0.839844 146.542969 Z M 0.839844 0.511719 " clip-rule="nonzero"/></clipPath><clipPath id="a3d74d52e6"><path d="M 293.03125 146.542969 C 293.03125 67.003906 226.542969 0.511719 147 0.511719 C 67.457031 0.511719 0.96875 67.003906 0.96875 146.542969 L 82.054688 146.542969 C 82.054688 111.167969 111.625 81.597656 147 81.597656 C 182.375 81.597656 211.945312 111.167969 211.945312 146.542969 Z M 293.03125 146.542969 " clip-rule="nonzero"/></clipPath><clipPath id="6ac17665ea"><rect x="0" width="294" y="0" height="147"/></clipPath><clipPath id="f5f0187b41"><path d="M 237.960938 361.636719 L 530.59375 361.636719 L 530.59375 507.667969 L 237.960938 507.667969 Z M 237.960938 361.636719 " clip-rule="nonzero"/></clipPath><clipPath id="7d79cc2f43"><path d="M 237.960938 361.636719 C 237.960938 441.179688 304.449219 507.667969 383.992188 507.667969 C 463.53125 507.667969 530.023438 441.179688 530.023438 361.636719 L 448.9375 361.636719 C 448.9375 397.011719 419.367188 426.585938 383.992188 426.585938 C 348.617188 426.585938 319.046875 397.011719 319.046875 361.636719 Z M 237.960938 361.636719 " clip-rule="nonzero"/></clipPath><clipPath id="8ad16811e5"><path d="M 0.960938 0.636719 L 293.160156 0.636719 L 293.160156 146.667969 L 0.960938 146.667969 Z M 0.960938 0.636719 " clip-rule="nonzero"/></clipPath><clipPath id="3987f61df3"><path d="M 0.960938 0.636719 C 0.960938 80.179688 67.449219 146.667969 146.992188 146.667969 C 226.53125 146.667969 293.023438 80.179688 293.023438 0.636719 L 211.9375 0.636719 C 211.9375 36.011719 182.367188 65.585938 146.992188 65.585938 C 111.617188 65.585938 82.046875 36.011719 82.046875 0.636719 Z M 0.960938 0.636719 " clip-rule="nonzero"/></clipPath><clipPath id="2935403439"><rect x="0" width="294" y="0" height="147"/></clipPath><clipPath id="7c863ab39d"><path d="M 408.933594 325.964844 L 566.191406 325.964844 L 566.191406 401.121094 L 408.933594 401.121094 Z M 408.933594 325.964844 " clip-rule="nonzero"/></clipPath><clipPath id="5d01bc75cd"><path d="M 0.933594 0.964844 L 158.191406 0.964844 L 158.191406 76.121094 L 0.933594 76.121094 Z M 0.933594 0.964844 " clip-rule="nonzero"/></clipPath><clipPath id="7c3d0055fc"><rect x="0" width="159" y="0" height="77"/></clipPath><clipPath id="054905fa8c"><rect x="0" width="332" y="0" height="83"/></clipPath><clipPath id="dbdf0e340e"><rect x="0" width="165" y="0" height="87"/></clipPath></defs><rect x="-76.8" width="921.6" fill="#ffffff" y="-76.799999" height="921.599993" fill-opacity="1"/><rect x="-76.8" width="921.6" fill="#001f48" y="-76.799999" height="921.599993" fill-opacity="1"/><g clip-path="url(#808fb6b786)"><g clip-path="url(#6b760f51f7)"><g transform="matrix(1, 0, 0, 1, 237, 217)"><g clip-path="url(#6ac17665ea)"><g clip-path="url(#65ce03cb2d)"><g clip-path="url(#a3d74d52e6)"><path fill="#ffffff" d="M 0.96875 0.511719 L 293.03125 0.511719 L 293.03125 146.542969 L 0.96875 146.542969 Z M 0.96875 0.511719 " fill-opacity="1" fill-rule="nonzero"/></g></g></g></g></g></g><g clip-path="url(#f5f0187b41)"><g clip-path="url(#7d79cc2f43)"><g transform="matrix(1, 0, 0, 1, 237, 361)"><g clip-path="url(#2935403439)"><g clip-path="url(#8ad16811e5)"><g clip-path="url(#3987f61df3)"><path fill="#ffffff" d="M 293.023438 146.667969 L 0.960938 146.667969 L 0.960938 0.636719 L 293.023438 0.636719 Z M 293.023438 146.667969 " fill-opacity="1" fill-rule="nonzero"/></g></g></g></g></g></g><g clip-path="url(#7c863ab39d)"><g transform="matrix(1, 0, 0, 1, 408, 325)"><g clip-path="url(#7c3d0055fc)"><g clip-path="url(#5d01bc75cd)"><path fill="#001f48" d="M 0.933594 0.964844 L 158.296875 0.964844 L 158.296875 76.121094 L 0.933594 76.121094 Z M 0.933594 0.964844 " fill-opacity="1" fill-rule="nonzero"/></g></g></g></g><g transform="matrix(1, 0, 0, 1, 141, 320)"><g clip-path="url(#054905fa8c)"><g fill="#ffffff" fill-opacity="1"><g transform="translate(1.330228, 61.479221)"><g><path d="M -0.265625 -20.6875 C -0.265625 -25.140625 0.707031 -29.128906 2.65625 -32.652344 C 4.617188 -36.210938 7.359375 -38.984375 10.875 -40.972656 C 14.367188 -42.945312 18.300781 -43.929688 22.683594 -43.929688 C 28.066406 -43.929688 32.699219 -42.492188 36.574219 -39.617188 C 40.476562 -36.726562 43.082031 -32.796875 44.386719 -27.832031 L 45.113281 -25.066406 L 29.816406 -25.066406 L 29.21875 -26.320312 C 28.585938 -27.644531 27.707031 -28.640625 26.578125 -29.316406 C 25.417969 -30.007812 24.082031 -30.355469 22.566406 -30.355469 C 20.132812 -30.355469 18.171875 -29.523438 16.691406 -27.859375 C 15.144531 -26.121094 14.371094 -23.730469 14.371094 -20.6875 C 14.371094 -17.640625 15.144531 -15.25 16.691406 -13.515625 C 18.171875 -11.851562 20.132812 -11.019531 22.566406 -11.019531 C 24.082031 -11.019531 25.417969 -11.367188 26.578125 -12.058594 C 27.707031 -12.734375 28.585938 -13.730469 29.21875 -15.054688 L 29.816406 -16.308594 L 45.113281 -16.308594 L 44.386719 -13.542969 C 43.078125 -8.574219 40.472656 -4.65625 36.566406 -1.78125 C 32.691406 1.070312 28.066406 2.496094 22.683594 2.496094 C 18.300781 2.496094 14.367188 1.511719 10.875 -0.460938 C 7.359375 -2.449219 4.621094 -5.207031 2.65625 -8.746094 C 0.710938 -12.25 -0.265625 -16.230469 -0.265625 -20.6875 Z M 4.144531 -20.6875 C 4.144531 -16.992188 4.933594 -13.726562 6.511719 -10.886719 C 8.074219 -8.074219 10.25 -5.878906 13.042969 -4.300781 C 15.863281 -2.707031 19.074219 -1.910156 22.683594 -1.910156 C 27.101562 -1.910156 30.855469 -3.050781 33.957031 -5.332031 C 37.023438 -7.589844 39.082031 -10.699219 40.125 -14.664062 L 42.253906 -14.105469 L 42.253906 -11.902344 L 31.207031 -11.902344 L 31.207031 -14.105469 L 33.195312 -13.15625 C 32.183594 -11.03125 30.730469 -9.402344 28.839844 -8.273438 C 26.984375 -7.164062 24.894531 -6.613281 22.566406 -6.613281 C 18.8125 -6.613281 15.757812 -7.933594 13.398438 -10.582031 C 11.105469 -13.15625 9.960938 -16.523438 9.960938 -20.6875 C 9.960938 -24.851562 11.105469 -28.21875 13.398438 -30.792969 C 15.757812 -33.4375 18.8125 -34.761719 22.566406 -34.761719 C 24.894531 -34.761719 26.984375 -34.207031 28.839844 -33.097656 C 30.730469 -31.96875 32.183594 -30.34375 33.195312 -28.21875 L 31.207031 -27.269531 L 31.207031 -29.472656 L 42.253906 -29.472656 L 42.253906 -27.269531 L 40.125 -26.707031 C 39.078125 -30.675781 37.023438 -33.796875 33.949219 -36.078125 C 30.851562 -38.375 27.097656 -39.523438 22.683594 -39.523438 C 19.074219 -39.523438 15.863281 -38.726562 13.042969 -37.132812 C 10.253906 -35.554688 8.074219 -33.351562 6.511719 -30.523438 C 4.933594 -27.660156 4.144531 -24.382812 4.144531 -20.6875 Z M 4.144531 -20.6875 "/></g></g></g><g fill="#ffffff" fill-opacity="1"><g transform="translate(46.110329, 61.479221)"><g><path d="M 29.324219 -5.082031 L 13.929688 -5.082031 L 13.929688 -7.289062 L 16.015625 -6.582031 L 13.039062 2.203125 L -2.199219 2.203125 L 14.320312 -43.460938 L 29.050781 -43.460938 L 45.574219 2.203125 L 30.214844 2.203125 L 27.238281 -6.582031 L 29.324219 -7.289062 Z M 30.90625 -9.492188 L 33.882812 -0.707031 L 31.792969 0 L 31.792969 -2.203125 L 42.433594 -2.203125 L 42.433594 0 L 40.359375 0.75 L 25.433594 -40.507812 L 27.503906 -41.257812 L 27.503906 -39.050781 L 15.867188 -39.050781 L 15.867188 -41.257812 L 17.941406 -40.507812 L 3.011719 0.75 L 0.941406 0 L 0.941406 -2.203125 L 11.460938 -2.203125 L 11.460938 0 L 9.371094 -0.707031 L 12.347656 -9.492188 Z M 24.652344 -14.339844 L 19.539062 -29.441406 L 21.628906 -30.148438 L 23.71875 -29.449219 L 18.664062 -14.34375 L 16.574219 -15.046875 L 16.574219 -17.25 L 26.742188 -17.25 L 26.742188 -15.046875 Z M 29.8125 -12.839844 L 13.511719 -12.839844 L 21.613281 -37.058594 L 28.828125 -15.75 Z M 29.8125 -12.839844 "/></g></g></g><g fill="#ffffff" fill-opacity="1"><g transform="translate(89.421262, 61.479221)"><g><path d="M 35.527344 -41.257812 L 35.527344 -31 L 22.390625 -31 L 22.390625 -33.203125 L 24.59375 -33.203125 L 24.59375 2.203125 L 10.136719 2.203125 L 10.136719 -33.203125 L 12.339844 -33.203125 L 12.339844 -31 L -0.792969 -31 L -0.792969 -43.460938 L 35.527344 -43.460938 Z M 31.117188 -41.257812 L 33.324219 -41.257812 L 33.324219 -39.050781 L 1.410156 -39.050781 L 1.410156 -41.257812 L 3.613281 -41.257812 L 3.613281 -33.203125 L 1.410156 -33.203125 L 1.410156 -35.410156 L 14.546875 -35.410156 L 14.546875 0 L 12.339844 0 L 12.339844 -2.203125 L 22.390625 -2.203125 L 22.390625 0 L 20.1875 0 L 20.1875 -35.410156 L 33.324219 -35.410156 L 33.324219 -33.203125 L 31.117188 -33.203125 Z M 31.117188 -41.257812 "/></g></g></g><g fill="#ffffff" fill-opacity="1"><g transform="translate(124.152284, 61.479221)"><g><path d="M 41.578125 -41.257812 L 41.578125 2.203125 L 27.121094 2.203125 L 27.121094 -16.984375 L 29.324219 -16.984375 L 29.324219 -14.78125 L 13.691406 -14.78125 L 13.691406 -16.984375 L 15.898438 -16.984375 L 15.898438 2.203125 L 1.441406 2.203125 L 1.441406 -43.460938 L 15.898438 -43.460938 L 15.898438 -25.09375 L 13.691406 -25.09375 L 13.691406 -27.296875 L 29.324219 -27.296875 L 29.324219 -25.09375 L 27.121094 -25.09375 L 27.121094 -43.460938 L 41.578125 -43.460938 Z M 37.171875 -41.257812 L 39.375 -41.257812 L 39.375 -39.050781 L 29.324219 -39.050781 L 29.324219 -41.257812 L 31.53125 -41.257812 L 31.53125 -22.890625 L 11.488281 -22.890625 L 11.488281 -41.257812 L 13.691406 -41.257812 L 13.691406 -39.050781 L 3.644531 -39.050781 L 3.644531 -41.257812 L 5.847656 -41.257812 L 5.847656 0 L 3.644531 0 L 3.644531 -2.203125 L 13.691406 -2.203125 L 13.691406 0 L 11.488281 0 L 11.488281 -19.1875 L 31.53125 -19.1875 L 31.53125 0 L 29.324219 0 L 29.324219 -2.203125 L 39.375 -2.203125 L 39.375 0 L 37.171875 0 Z M 37.171875 -41.257812 "/></g></g></g><g fill="#ffffff" fill-opacity="1"><g transform="translate(167.110623, 61.479221)"><g><path d="M 15.898438 -33.203125 L 15.898438 -24.859375 L 13.691406 -24.859375 L 13.691406 -27.0625 L 29.355469 -27.0625 L 29.355469 -14.898438 L 13.691406 -14.898438 L 13.691406 -17.101562 L 15.898438 -17.101562 L 15.898438 -8.050781 L 13.691406 -8.050781 L 13.691406 -10.253906 L 31.117188 -10.253906 L 31.117188 2.203125 L 1.441406 2.203125 L 1.441406 -43.460938 L 31.117188 -43.460938 L 31.117188 -31 L 13.691406 -31 L 13.691406 -33.203125 Z M 11.488281 -35.410156 L 28.914062 -35.410156 L 28.914062 -33.203125 L 26.710938 -33.203125 L 26.710938 -41.257812 L 28.914062 -41.257812 L 28.914062 -39.050781 L 3.644531 -39.050781 L 3.644531 -41.257812 L 5.847656 -41.257812 L 5.847656 0 L 3.644531 0 L 3.644531 -2.203125 L 28.914062 -2.203125 L 28.914062 0 L 26.710938 0 L 26.710938 -8.050781 L 28.914062 -8.050781 L 28.914062 -5.847656 L 11.488281 -5.847656 L 11.488281 -19.304688 L 27.152344 -19.304688 L 27.152344 -17.101562 L 24.949219 -17.101562 L 24.949219 -24.859375 L 27.152344 -24.859375 L 27.152344 -22.65625 L 11.488281 -22.65625 Z M 11.488281 -35.410156 "/></g></g></g><g fill="#ffffff" fill-opacity="1"><g transform="translate(198.903312, 61.479221)"><g><path d="M 22.753906 1.0625 L 14.171875 -14.511719 L 16.101562 -15.574219 L 16.101562 -13.371094 L 13.691406 -13.371094 L 13.691406 -15.574219 L 15.898438 -15.574219 L 15.898438 2.203125 L 1.441406 2.203125 L 1.441406 -43.460938 L 20.511719 -43.460938 C 24.105469 -43.460938 27.203125 -42.816406 29.804688 -41.527344 C 32.496094 -40.191406 34.523438 -38.34375 35.878906 -35.976562 C 37.210938 -33.660156 37.878906 -31.089844 37.878906 -28.269531 C 37.878906 -25.050781 36.964844 -22.175781 35.140625 -19.636719 C 33.300781 -17.074219 30.632812 -15.269531 27.136719 -14.226562 L 26.503906 -16.339844 L 28.410156 -17.449219 L 39.859375 2.203125 L 23.382812 2.203125 Z M 26.613281 -1.0625 L 24.683594 0 L 24.683594 -2.203125 L 36.027344 -2.203125 L 36.027344 0 L 34.121094 1.109375 L 23.191406 -17.648438 L 25.875 -18.449219 C 28.410156 -19.207031 30.304688 -20.460938 31.5625 -22.207031 C 32.832031 -23.976562 33.46875 -26 33.46875 -28.269531 C 33.46875 -30.304688 33 -32.144531 32.058594 -33.78125 C 31.144531 -35.375 29.738281 -36.640625 27.847656 -37.578125 C 25.863281 -38.5625 23.417969 -39.050781 20.511719 -39.050781 L 3.644531 -39.050781 L 3.644531 -41.257812 L 5.847656 -41.257812 L 5.847656 0 L 3.644531 0 L 3.644531 -2.203125 L 13.691406 -2.203125 L 13.691406 0 L 11.488281 0 L 11.488281 -17.777344 L 17.40625 -17.777344 Z M 13.691406 -24.890625 L 19.921875 -24.890625 C 21.164062 -24.890625 22.03125 -25.128906 22.523438 -25.613281 C 23.003906 -26.082031 23.242188 -26.828125 23.242188 -27.855469 C 23.242188 -28.804688 23.003906 -29.515625 22.523438 -29.984375 C 22.03125 -30.464844 21.164062 -30.707031 19.921875 -30.707031 L 13.691406 -30.707031 L 13.691406 -32.910156 L 15.898438 -32.910156 L 15.898438 -22.683594 L 13.691406 -22.683594 Z M 11.488281 -20.480469 L 11.488281 -35.113281 L 19.921875 -35.113281 C 22.363281 -35.113281 24.257812 -34.453125 25.609375 -33.132812 C 26.96875 -31.800781 27.652344 -30.042969 27.652344 -27.855469 C 27.652344 -25.59375 26.96875 -23.796875 25.609375 -22.460938 C 24.257812 -21.140625 22.363281 -20.480469 19.921875 -20.480469 Z M 11.488281 -20.480469 "/></g></g></g><g fill="#ffffff" fill-opacity="1"><g transform="translate(237.219079, 61.479221)"><g><path d="M 1.441406 -43.460938 L 15.898438 -43.460938 L 15.898438 2.203125 L 1.441406 2.203125 Z M 5.847656 -39.050781 L 5.847656 -2.203125 L 11.488281 -2.203125 L 11.488281 -39.050781 Z M 5.847656 -39.050781 "/></g></g></g><g fill="#ffffff" fill-opacity="1"><g transform="translate(254.555216, 61.479221)"><g><path d="M 40.550781 2.203125 L 29.316406 2.203125 L 11.855469 -24.234375 L 13.691406 -25.449219 L 15.898438 -25.449219 L 15.898438 2.203125 L 1.441406 2.203125 L 1.441406 -43.460938 L 14.882812 -43.460938 L 32.34375 -16.902344 L 30.5 -15.691406 L 28.296875 -15.691406 L 28.296875 -43.460938 L 42.753906 -43.460938 L 42.753906 2.203125 Z M 40.550781 -2.203125 L 40.550781 0 L 38.347656 0 L 38.347656 -41.257812 L 40.550781 -41.257812 L 40.550781 -39.050781 L 30.5 -39.050781 L 30.5 -41.257812 L 32.707031 -41.257812 L 32.707031 -8.328125 L 11.851562 -40.046875 L 13.691406 -41.257812 L 13.691406 -39.050781 L 3.644531 -39.050781 L 3.644531 -41.257812 L 5.847656 -41.257812 L 5.847656 0 L 3.644531 0 L 3.644531 -2.203125 L 13.691406 -2.203125 L 13.691406 0 L 11.488281 0 L 11.488281 -32.785156 L 32.339844 -1.214844 L 30.5 0 L 30.5 -2.203125 Z M 40.550781 -2.203125 "/></g></g></g><g fill="#ffffff" fill-opacity="1"><g transform="translate(298.74765, 61.479221)"><g><path d="M 15.898438 -33.203125 L 15.898438 -24.859375 L 13.691406 -24.859375 L 13.691406 -27.0625 L 29.355469 -27.0625 L 29.355469 -14.898438 L 13.691406 -14.898438 L 13.691406 -17.101562 L 15.898438 -17.101562 L 15.898438 -8.050781 L 13.691406 -8.050781 L 13.691406 -10.253906 L 31.117188 -10.253906 L 31.117188 2.203125 L 1.441406 2.203125 L 1.441406 -43.460938 L 31.117188 -43.460938 L 31.117188 -31 L 13.691406 -31 L 13.691406 -33.203125 Z M 11.488281 -35.410156 L 28.914062 -35.410156 L 28.914062 -33.203125 L 26.710938 -33.203125 L 26.710938 -41.257812 L 28.914062 -41.257812 L 28.914062 -39.050781 L 3.644531 -39.050781 L 3.644531 -41.257812 L 5.847656 -41.257812 L 5.847656 0 L 3.644531 0 L 3.644531 -2.203125 L 28.914062 -2.203125 L 28.914062 0 L 26.710938 0 L 26.710938 -8.050781 L 28.914062 -8.050781 L 28.914062 -5.847656 L 11.488281 -5.847656 L 11.488281 -19.304688 L 27.152344 -19.304688 L 27.152344 -17.101562 L 24.949219 -17.101562 L 24.949219 -24.859375 L 27.152344 -24.859375 L 27.152344 -22.65625 L 11.488281 -22.65625 Z M 11.488281 -35.410156 "/></g></g></g><g fill="#001f48" fill-opacity="1"><g transform="translate(1.330228, 61.479221)"><g><path d="M 1.9375 -20.6875 C 1.9375 -24.757812 2.816406 -28.390625 4.578125 -31.578125 C 6.347656 -34.773438 8.804688 -37.265625 11.953125 -39.046875 C 15.109375 -40.828125 18.6875 -41.71875 22.6875 -41.71875 C 27.582031 -41.71875 31.769531 -40.425781 35.25 -37.84375 C 38.738281 -35.257812 41.070312 -31.734375 42.25 -27.265625 L 31.203125 -27.265625 C 30.378906 -28.992188 29.210938 -30.304688 27.703125 -31.203125 C 26.203125 -32.109375 24.488281 -32.5625 22.5625 -32.5625 C 19.46875 -32.5625 16.960938 -31.484375 15.046875 -29.328125 C 13.128906 -27.171875 12.171875 -24.289062 12.171875 -20.6875 C 12.171875 -17.082031 13.128906 -14.203125 15.046875 -12.046875 C 16.960938 -9.890625 19.46875 -8.8125 22.5625 -8.8125 C 24.488281 -8.8125 26.203125 -9.257812 27.703125 -10.15625 C 29.210938 -11.0625 30.378906 -12.378906 31.203125 -14.109375 L 42.25 -14.109375 C 41.070312 -9.640625 38.738281 -6.117188 35.25 -3.546875 C 31.769531 -0.984375 27.582031 0.296875 22.6875 0.296875 C 18.6875 0.296875 15.109375 -0.59375 11.953125 -2.375 C 8.804688 -4.15625 6.347656 -6.632812 4.578125 -9.8125 C 2.816406 -12.988281 1.9375 -16.613281 1.9375 -20.6875 Z M 1.9375 -20.6875 "/></g></g></g><g fill="#001f48" fill-opacity="1"><g transform="translate(46.110329, 61.479221)"><g><path d="M 29.328125 -7.28125 L 13.921875 -7.28125 L 11.453125 0 L 0.9375 0 L 15.859375 -41.25 L 27.5 -41.25 L 42.421875 0 L 31.796875 0 Z M 26.734375 -15.046875 L 21.625 -30.140625 L 16.578125 -15.046875 Z M 26.734375 -15.046875 "/></g></g></g><g fill="#001f48" fill-opacity="1"><g transform="translate(89.421262, 61.479221)"><g><path d="M 33.3125 -41.25 L 33.3125 -33.203125 L 22.390625 -33.203125 L 22.390625 0 L 12.34375 0 L 12.34375 -33.203125 L 1.40625 -33.203125 L 1.40625 -41.25 Z M 33.3125 -41.25 "/></g></g></g><g fill="#001f48" fill-opacity="1"><g transform="translate(124.152284, 61.479221)"><g><path d="M 39.375 -41.25 L 39.375 0 L 29.328125 0 L 29.328125 -16.984375 L 13.6875 -16.984375 L 13.6875 0 L 3.640625 0 L 3.640625 -41.25 L 13.6875 -41.25 L 13.6875 -25.09375 L 29.328125 -25.09375 L 29.328125 -41.25 Z M 39.375 -41.25 "/></g></g></g><g fill="#001f48" fill-opacity="1"><g transform="translate(167.110623, 61.479221)"><g><path d="M 13.6875 -33.203125 L 13.6875 -24.859375 L 27.15625 -24.859375 L 27.15625 -17.09375 L 13.6875 -17.09375 L 13.6875 -8.046875 L 28.90625 -8.046875 L 28.90625 0 L 3.640625 0 L 3.640625 -41.25 L 28.90625 -41.25 L 28.90625 -33.203125 Z M 13.6875 -33.203125 "/></g></g></g><g fill="#001f48" fill-opacity="1"><g transform="translate(198.903312, 61.479221)"><g><path d="M 24.6875 0 L 16.109375 -15.578125 L 13.6875 -15.578125 L 13.6875 0 L 3.640625 0 L 3.640625 -41.25 L 20.515625 -41.25 C 23.765625 -41.25 26.535156 -40.679688 28.828125 -39.546875 C 31.117188 -38.410156 32.832031 -36.851562 33.96875 -34.875 C 35.101562 -32.894531 35.671875 -30.691406 35.671875 -28.265625 C 35.671875 -25.523438 34.894531 -23.078125 33.34375 -20.921875 C 31.800781 -18.765625 29.519531 -17.238281 26.5 -16.34375 L 36.015625 0 Z M 13.6875 -22.6875 L 19.921875 -22.6875 C 21.765625 -22.6875 23.144531 -23.132812 24.0625 -24.03125 C 24.988281 -24.9375 25.453125 -26.210938 25.453125 -27.859375 C 25.453125 -29.421875 24.988281 -30.648438 24.0625 -31.546875 C 23.144531 -32.453125 21.765625 -32.90625 19.921875 -32.90625 L 13.6875 -32.90625 Z M 13.6875 -22.6875 "/></g></g></g><g fill="#001f48" fill-opacity="1"><g transform="translate(237.219079, 61.479221)"><g><path d="M 13.6875 -41.25 L 13.6875 0 L 3.640625 0 L 3.640625 -41.25 Z M 13.6875 -41.25 "/></g></g></g><g fill="#001f48" fill-opacity="1"><g transform="translate(254.555216, 61.479221)"><g><path d="M 40.546875 0 L 30.5 0 L 13.6875 -25.453125 L 13.6875 0 L 3.640625 0 L 3.640625 -41.25 L 13.6875 -41.25 L 30.5 -15.6875 L 30.5 -41.25 L 40.546875 -41.25 Z M 40.546875 0 "/></g></g></g><g fill="#001f48" fill-opacity="1"><g transform="translate(298.74765, 61.479221)"><g><path d="M 13.6875 -33.203125 L 13.6875 -24.859375 L 27.15625 -24.859375 L 27.15625 -17.09375 L 13.6875 -17.09375 L 13.6875 -8.046875 L 28.90625 -8.046875 L 28.90625 0 L 3.640625 0 L 3.640625 -41.25 L 28.90625 -41.25 L 28.90625 -33.203125 Z M 13.6875 -33.203125 "/></g></g></g></g></g><g transform="matrix(1, 0, 0, 1, 482, 318)"><g clip-path="url(#dbdf0e340e)"><g fill="#001f48" fill-opacity="1"><g transform="translate(2.544563, 64.360862)"><g><path d="M 24.082031 2.71875 C 19.652344 2.71875 15.582031 1.6875 11.871094 -0.382812 C 8.148438 -2.457031 5.191406 -5.355469 3.003906 -9.078125 C 0.820312 -12.796875 -0.273438 -16.964844 -0.273438 -21.578125 C -0.273438 -26.191406 0.820312 -30.351562 3.007812 -34.050781 C 5.195312 -37.75 8.148438 -40.636719 11.871094 -42.710938 C 15.582031 -44.777344 19.652344 -45.8125 24.082031 -45.8125 C 28.515625 -45.8125 32.585938 -44.777344 36.292969 -42.710938 C 40.023438 -40.632812 42.960938 -37.738281 45.105469 -34.035156 C 47.246094 -30.335938 48.320312 -26.183594 48.320312 -21.578125 C 48.320312 -16.96875 47.238281 -12.804688 45.074219 -9.085938 C 42.90625 -5.363281 39.972656 -2.464844 36.269531 -0.382812 C 32.578125 1.683594 28.515625 2.71875 24.082031 2.71875 Z M 24.082031 -1.863281 C 27.71875 -1.863281 31.03125 -2.703125 34.023438 -4.382812 C 37.003906 -6.054688 39.363281 -8.390625 41.109375 -11.390625 C 42.859375 -14.398438 43.734375 -17.792969 43.734375 -21.578125 C 43.734375 -25.363281 42.867188 -28.75 41.140625 -31.734375 C 39.414062 -34.714844 37.054688 -37.035156 34.058594 -38.707031 C 31.046875 -40.386719 27.71875 -41.226562 24.082031 -41.226562 C 20.445312 -41.226562 17.121094 -40.386719 14.105469 -38.707031 C 11.105469 -37.03125 8.71875 -34.703125 6.953125 -31.71875 C 5.191406 -28.734375 4.308594 -25.355469 4.308594 -21.578125 C 4.308594 -17.796875 5.191406 -14.402344 6.957031 -11.398438 C 8.722656 -8.394531 11.105469 -6.058594 14.105469 -4.386719 C 17.121094 -2.703125 20.445312 -1.863281 24.082031 -1.863281 Z M 24.082031 -11.398438 C 26.824219 -11.398438 29 -12.289062 30.601562 -14.066406 C 32.265625 -15.910156 33.097656 -18.414062 33.097656 -21.578125 C 33.097656 -24.773438 32.269531 -27.285156 30.609375 -29.109375 C 29.003906 -30.871094 26.828125 -31.753906 24.082031 -31.753906 C 21.289062 -31.753906 19.09375 -30.878906 17.488281 -29.132812 C 15.832031 -27.332031 15.007812 -24.8125 15.007812 -21.578125 C 15.007812 -18.378906 15.835938 -15.867188 17.496094 -14.042969 C 19.097656 -12.28125 21.292969 -11.398438 24.082031 -11.398438 Z M 24.082031 -6.816406 C 19.945312 -6.816406 16.617188 -8.195312 14.105469 -10.957031 C 11.648438 -13.65625 10.421875 -17.195312 10.421875 -21.578125 C 10.421875 -26.003906 11.652344 -29.554688 14.113281 -32.234375 C 16.625 -34.96875 19.949219 -36.339844 24.082031 -36.339844 C 28.179688 -36.339844 31.488281 -34.957031 34 -32.195312 C 36.453125 -29.496094 37.683594 -25.957031 37.683594 -21.578125 C 37.683594 -17.242188 36.457031 -13.714844 34.007812 -10.996094 C 31.492188 -8.207031 28.183594 -6.816406 24.082031 -6.816406 Z M 24.082031 -6.816406 "/></g></g></g><g fill="#001f48" fill-opacity="1"><g transform="translate(50.586466, 64.360862)"><g><path d="M 23.664062 1.105469 L 14.738281 -15.089844 L 16.746094 -16.199219 L 16.746094 -13.90625 L 14.242188 -13.90625 L 14.242188 -16.199219 L 16.535156 -16.199219 L 16.535156 2.292969 L 1.496094 2.292969 L 1.496094 -45.199219 L 21.332031 -45.199219 C 25.074219 -45.199219 28.292969 -44.53125 31 -43.191406 C 33.796875 -41.800781 35.90625 -39.878906 37.316406 -37.417969 C 38.703125 -35.007812 39.394531 -32.335938 39.394531 -29.402344 C 39.394531 -26.054688 38.445312 -23.0625 36.550781 -20.421875 C 34.636719 -17.757812 31.859375 -15.882812 28.222656 -14.796875 L 27.566406 -16.992188 L 29.546875 -18.148438 L 41.457031 2.292969 L 24.316406 2.292969 Z M 27.679688 -1.105469 L 25.671875 0 L 25.671875 -2.292969 L 37.46875 -2.292969 L 37.46875 0 L 35.488281 1.152344 L 24.121094 -18.355469 L 26.910156 -19.1875 C 29.546875 -19.976562 31.519531 -21.28125 32.824219 -23.097656 C 34.148438 -24.9375 34.808594 -27.039062 34.808594 -29.402344 C 34.808594 -31.519531 34.320312 -33.429688 33.339844 -35.136719 C 32.390625 -36.792969 30.929688 -38.105469 28.964844 -39.082031 C 26.898438 -40.105469 24.355469 -40.617188 21.332031 -40.617188 L 3.789062 -40.617188 L 3.789062 -42.910156 L 6.082031 -42.910156 L 6.082031 0 L 3.789062 0 L 3.789062 -2.292969 L 14.242188 -2.292969 L 14.242188 0 L 11.949219 0 L 11.949219 -18.488281 L 18.101562 -18.488281 Z M 14.242188 -25.886719 L 20.722656 -25.886719 C 22.011719 -25.886719 22.914062 -26.136719 23.425781 -26.636719 C 23.925781 -27.125 24.175781 -27.902344 24.175781 -28.972656 C 24.175781 -29.960938 23.925781 -30.699219 23.425781 -31.183594 C 22.914062 -31.6875 22.011719 -31.9375 20.722656 -31.9375 L 14.242188 -31.9375 L 14.242188 -34.230469 L 16.535156 -34.230469 L 16.535156 -23.59375 L 14.242188 -23.59375 Z M 11.949219 -21.300781 L 11.949219 -36.523438 L 20.722656 -36.523438 C 23.257812 -36.523438 25.230469 -35.835938 26.632812 -34.460938 C 28.050781 -33.074219 28.757812 -31.246094 28.757812 -28.972656 C 28.757812 -26.617188 28.050781 -24.75 26.632812 -23.363281 C 25.230469 -21.988281 23.257812 -21.300781 20.722656 -21.300781 Z M 11.949219 -21.300781 "/></g></g></g><g fill="#001f48" fill-opacity="1"><g transform="translate(90.438017, 64.360862)"><g><path d="M 30.246094 -24.246094 C 33.277344 -23.601562 35.714844 -22.089844 37.566406 -19.714844 C 39.394531 -17.367188 40.3125 -14.683594 40.3125 -11.675781 C 40.3125 -7.375 38.785156 -3.945312 35.730469 -1.390625 C 32.800781 1.066406 28.816406 2.292969 23.777344 2.292969 L 1.496094 2.292969 L 1.496094 -45.199219 L 23.105469 -45.199219 C 28.007812 -45.199219 31.898438 -44.03125 34.785156 -41.695312 C 37.816406 -39.238281 39.332031 -35.9375 39.332031 -31.785156 C 39.332031 -28.726562 38.503906 -26.152344 36.851562 -24.066406 C 35.226562 -22.015625 33.082031 -20.597656 30.417969 -19.808594 L 29.765625 -22.003906 Z M 29.289062 -19.761719 L 29.117188 -24.203125 C 30.851562 -24.71875 32.234375 -25.621094 33.257812 -26.914062 C 34.25 -28.167969 34.75 -29.789062 34.75 -31.785156 C 34.75 -34.476562 33.800781 -36.59375 31.898438 -38.132812 C 29.855469 -39.789062 26.921875 -40.617188 23.105469 -40.617188 L 3.789062 -40.617188 L 3.789062 -42.910156 L 6.082031 -42.910156 L 6.082031 0 L 3.789062 0 L 3.789062 -2.292969 L 23.777344 -2.292969 C 27.703125 -2.292969 30.707031 -3.164062 32.789062 -4.90625 C 34.746094 -6.546875 35.726562 -8.800781 35.726562 -11.675781 C 35.726562 -13.636719 35.132812 -15.375 33.949219 -16.898438 C 32.785156 -18.394531 31.230469 -19.347656 29.289062 -19.761719 Z M 14.242188 -27.84375 L 21.085938 -27.84375 C 22.25 -27.84375 23.082031 -28.046875 23.574219 -28.449219 C 23.933594 -28.746094 24.113281 -29.265625 24.113281 -30.011719 C 24.113281 -30.769531 23.925781 -31.304688 23.550781 -31.621094 C 23.0625 -32.035156 22.242188 -32.242188 21.085938 -32.242188 L 14.242188 -32.242188 L 14.242188 -34.535156 L 16.535156 -34.535156 L 16.535156 -25.550781 L 14.242188 -25.550781 Z M 11.949219 -23.257812 L 11.949219 -36.828125 L 21.085938 -36.828125 C 23.359375 -36.828125 25.164062 -36.257812 26.507812 -35.125 C 27.96875 -33.894531 28.699219 -32.1875 28.699219 -30.011719 C 28.699219 -27.824219 27.960938 -26.121094 26.484375 -24.910156 C 25.144531 -23.808594 23.347656 -23.257812 21.085938 -23.257812 Z M 21.945312 -10.726562 C 23.144531 -10.726562 24.011719 -10.949219 24.542969 -11.390625 C 24.949219 -11.726562 25.152344 -12.289062 25.152344 -13.082031 C 25.152344 -13.886719 24.921875 -14.488281 24.457031 -14.886719 C 23.886719 -15.375 23.007812 -15.617188 21.820312 -15.617188 L 14.242188 -15.617188 L 14.242188 -17.910156 L 16.535156 -17.910156 L 16.535156 -8.433594 L 14.242188 -8.433594 L 14.242188 -10.726562 Z M 21.945312 -6.144531 L 11.949219 -6.144531 L 11.949219 -20.203125 L 21.820312 -20.203125 C 24.140625 -20.203125 26.011719 -19.589844 27.4375 -18.367188 C 28.972656 -17.054688 29.738281 -15.292969 29.738281 -13.082031 C 29.738281 -10.855469 28.980469 -9.117188 27.472656 -7.863281 C 26.089844 -6.714844 24.246094 -6.144531 21.945312 -6.144531 Z M 21.945312 -6.144531 "/></g></g></g><g fill="#001f48" fill-opacity="1"><g transform="translate(130.717419, 64.360862)"><g><path d="M 16.535156 -34.535156 L 16.535156 -25.855469 L 14.242188 -25.855469 L 14.242188 -28.148438 L 30.53125 -28.148438 L 30.53125 -15.496094 L 14.242188 -15.496094 L 14.242188 -17.785156 L 16.535156 -17.785156 L 16.535156 -8.375 L 14.242188 -8.375 L 14.242188 -10.667969 L 32.363281 -10.667969 L 32.363281 2.292969 L 1.496094 2.292969 L 1.496094 -45.199219 L 32.363281 -45.199219 L 32.363281 -32.242188 L 14.242188 -32.242188 L 14.242188 -34.535156 Z M 11.949219 -36.828125 L 30.074219 -36.828125 L 30.074219 -34.535156 L 27.78125 -34.535156 L 27.78125 -42.910156 L 30.074219 -42.910156 L 30.074219 -40.617188 L 3.789062 -40.617188 L 3.789062 -42.910156 L 6.082031 -42.910156 L 6.082031 0 L 3.789062 0 L 3.789062 -2.292969 L 30.074219 -2.292969 L 30.074219 0 L 27.78125 0 L 27.78125 -8.375 L 30.074219 -8.375 L 30.074219 -6.082031 L 11.949219 -6.082031 L 11.949219 -20.078125 L 28.238281 -20.078125 L 28.238281 -17.785156 L 25.945312 -17.785156 L 25.945312 -25.855469 L 28.238281 -25.855469 L 28.238281 -23.5625 L 11.949219 -23.5625 Z M 11.949219 -36.828125 "/></g></g></g><g fill="#ffffff" fill-opacity="1"><g transform="translate(2.544563, 64.360862)"><g><path d="M 24.078125 0.421875 C 20.046875 0.421875 16.347656 -0.515625 12.984375 -2.390625 C 9.628906 -4.265625 6.960938 -6.878906 4.984375 -10.234375 C 3.003906 -13.597656 2.015625 -17.378906 2.015625 -21.578125 C 2.015625 -25.773438 3.003906 -29.539062 4.984375 -32.875 C 6.960938 -36.21875 9.628906 -38.828125 12.984375 -40.703125 C 16.347656 -42.578125 20.046875 -43.515625 24.078125 -43.515625 C 28.117188 -43.515625 31.816406 -42.578125 35.171875 -40.703125 C 38.535156 -38.828125 41.1875 -36.21875 43.125 -32.875 C 45.0625 -29.539062 46.03125 -25.773438 46.03125 -21.578125 C 46.03125 -17.378906 45.050781 -13.597656 43.09375 -10.234375 C 41.132812 -6.878906 38.484375 -4.265625 35.140625 -2.390625 C 31.804688 -0.515625 28.117188 0.421875 24.078125 0.421875 Z M 24.078125 -9.109375 C 27.503906 -9.109375 30.242188 -10.25 32.296875 -12.53125 C 34.359375 -14.8125 35.390625 -17.828125 35.390625 -21.578125 C 35.390625 -25.367188 34.359375 -28.394531 32.296875 -30.65625 C 30.242188 -32.914062 27.503906 -34.046875 24.078125 -34.046875 C 20.617188 -34.046875 17.859375 -32.925781 15.796875 -30.6875 C 13.742188 -28.445312 12.71875 -25.410156 12.71875 -21.578125 C 12.71875 -17.785156 13.742188 -14.757812 15.796875 -12.5 C 17.859375 -10.238281 20.617188 -9.109375 24.078125 -9.109375 Z M 24.078125 -9.109375 "/></g></g></g><g fill="#ffffff" fill-opacity="1"><g transform="translate(50.586466, 64.360862)"><g><path d="M 25.671875 0 L 16.75 -16.203125 L 14.234375 -16.203125 L 14.234375 0 L 3.796875 0 L 3.796875 -42.90625 L 21.328125 -42.90625 C 24.710938 -42.90625 27.597656 -42.3125 29.984375 -41.125 C 32.367188 -39.945312 34.148438 -38.328125 35.328125 -36.265625 C 36.515625 -34.210938 37.109375 -31.925781 37.109375 -29.40625 C 37.109375 -26.550781 36.300781 -24.003906 34.6875 -21.765625 C 33.082031 -19.523438 30.707031 -17.9375 27.5625 -17 L 37.46875 0 Z M 14.234375 -23.59375 L 20.71875 -23.59375 C 22.632812 -23.59375 24.070312 -24.0625 25.03125 -25 C 25.988281 -25.9375 26.46875 -27.257812 26.46875 -28.96875 C 26.46875 -30.601562 25.988281 -31.890625 25.03125 -32.828125 C 24.070312 -33.765625 22.632812 -34.234375 20.71875 -34.234375 L 14.234375 -34.234375 Z M 14.234375 -23.59375 "/></g></g></g><g fill="#ffffff" fill-opacity="1"><g transform="translate(90.438017, 64.360862)"><g><path d="M 29.765625 -22 C 32.253906 -21.46875 34.25 -20.234375 35.75 -18.296875 C 37.257812 -16.367188 38.015625 -14.160156 38.015625 -11.671875 C 38.015625 -8.085938 36.757812 -5.242188 34.25 -3.140625 C 31.75 -1.046875 28.257812 0 23.78125 0 L 3.796875 0 L 3.796875 -42.90625 L 23.109375 -42.90625 C 27.460938 -42.90625 30.875 -41.90625 33.34375 -39.90625 C 35.8125 -37.914062 37.046875 -35.207031 37.046875 -31.78125 C 37.046875 -29.257812 36.378906 -27.160156 35.046875 -25.484375 C 33.722656 -23.816406 31.960938 -22.65625 29.765625 -22 Z M 14.234375 -25.546875 L 21.09375 -25.546875 C 22.800781 -25.546875 24.113281 -25.921875 25.03125 -26.671875 C 25.945312 -27.429688 26.40625 -28.546875 26.40625 -30.015625 C 26.40625 -31.484375 25.945312 -32.601562 25.03125 -33.375 C 24.113281 -34.144531 22.800781 -34.53125 21.09375 -34.53125 L 14.234375 -34.53125 Z M 21.9375 -8.4375 C 23.695312 -8.4375 25.050781 -8.832031 26 -9.625 C 26.957031 -10.414062 27.4375 -11.566406 27.4375 -13.078125 C 27.4375 -14.585938 26.9375 -15.769531 25.9375 -16.625 C 24.945312 -17.476562 23.578125 -17.90625 21.828125 -17.90625 L 14.234375 -17.90625 L 14.234375 -8.4375 Z M 21.9375 -8.4375 "/></g></g></g><g fill="#ffffff" fill-opacity="1"><g transform="translate(130.717419, 64.360862)"><g><path d="M 14.234375 -34.53125 L 14.234375 -25.859375 L 28.234375 -25.859375 L 28.234375 -17.78125 L 14.234375 -17.78125 L 14.234375 -8.375 L 30.078125 -8.375 L 30.078125 0 L 3.796875 0 L 3.796875 -42.90625 L 30.078125 -42.90625 L 30.078125 -34.53125 Z M 14.234375 -34.53125 "/></g></g></g></g></g></svg>